<svg xmlns="http://www.w3.org/2000/svg" width="97" height="24" viewBox="0 0 97 24"><title>Ledger</title><g fill="#142533" fill-rule="nonzero"><path d="M16.702 0h-9.11v12.294h12.294v-9.11A3.177 3.177 0 0 0 16.702 0zM4.751 0H3.184A3.177 3.177 0 0 0 0 3.184V4.75h4.751V0zM0 7.592h4.751v4.751H0zM15.184 19.886h1.567a3.177 3.177 0 0 0 3.184-3.184v-1.518h-4.751v4.702zM7.592 15.184h4.751v4.751H7.592zM0 15.184v1.567a3.177 3.177 0 0 0 3.184 3.184H4.75v-4.751H0zM32.033 1.273H30.17v17.388h9.845v-1.665h-7.983zM45.992 5.878c-3.625 0-6.172 2.693-6.172 6.563v.44c.05 1.666.784 3.233 2.009 4.409 1.175 1.077 2.693 1.714 4.31 1.714h.245c1.714 0 3.33-.637 4.604-1.714l.049-.05-.833-1.37-.098.048c-1.028.931-2.302 1.47-3.673 1.47-2.253 0-4.555-1.47-4.702-4.751h9.404v-.098s.049-.588.049-.882c0-3.526-2.057-5.78-5.192-5.78zm-4.212 5.191c.391-2.204 2.008-3.624 4.114-3.624 1.567 0 3.282.93 3.428 3.624H41.78zM61.96 7.347v.637a4.441 4.441 0 0 0-3.772-2.155h-.147c-3.33 0-5.633 2.644-5.633 6.514 0 3.918 2.204 6.563 5.486 6.563 2.596 0 3.771-1.567 4.163-2.253V18.563h1.763V1.273h-1.812v6.074h-.049zm-3.821 9.943c-2.302 0-3.82-1.96-3.82-4.898 0-2.841 1.616-4.85 3.869-4.85 1.91 0 3.82 1.52 3.82 4.85 0 3.624-2.008 4.898-3.87 4.898zM74.547 7.592v.098c-.343-.588-1.42-1.861-4.016-1.861-3.282 0-5.437 2.498-5.437 6.318 0 3.82 2.253 6.416 5.584 6.416 1.812 0 3.036-.636 3.869-1.959v1.714c0 2.4-1.518 3.772-4.212 3.772a7.292 7.292 0 0 1-3.33-.833l-.099-.049-.686 1.519.098.049a9.2 9.2 0 0 0 4.066.98c2.89 0 5.975-1.47 5.975-5.536V6.171h-1.812v1.42zm-3.625 9.355c-2.4 0-3.967-1.861-3.967-4.751 0-2.939 1.372-4.604 3.723-4.604 2.595 0 3.82 1.518 3.82 4.604.049 3.037-1.225 4.75-3.576 4.75zM83.755 5.878c-3.624 0-6.122 2.693-6.122 6.514v.44c.049 1.666.783 3.233 2.008 4.409 1.175 1.077 2.694 1.714 4.31 1.714h.245c1.714 0 3.33-.637 4.604-1.714l.049-.05-.882-1.37-.098.048c-1.028.931-2.302 1.47-3.673 1.47-2.253 0-4.555-1.47-4.702-4.751h9.453v-.098s.049-.588.049-.882c0-3.477-2.057-5.73-5.24-5.73zm-4.163 5.191c.392-2.204 2.008-3.624 4.114-3.624 1.567 0 3.282.93 3.429 3.624h-7.543zM96.637 6.122c-.245-.049-.441-.049-.686-.098-1.714 0-3.135 1.078-3.87 2.89V6.122H90.27l.05 12.392v.098h1.86v-5.24c0-.784.099-1.617.343-2.352.588-1.91 1.91-3.134 3.478-3.134.196 0 .392 0 .588.049h.098V6.122h-.05z"></path></g></svg>
